<svg xmlns="http://www.w3.org/2000/svg" viewBox="0 0 512 512" role="img">
  <rect width="512" height="512" rx="96" ry="96" fill="#ffffff"/>
  <g fill="#111111">
    <path d="M64 176c0-26.51 21.49-48 48-48h176c70.692 0 128 57.308 128 128s-57.308 128-128 128H112c-26.51 0-48-21.49-48-48V176Z" />
    <path d="M256 168c52.248 0 96 57.308 96 128s-43.752 128-96 128-96-57.308-96-128 43.752-128 96-128Zm0 32c-35.346 0-64 43.072-64 96s28.654 96 64 96 64-43.072 64-96-28.654-96-64-96Z" fill="#ffffff"/>
    <path d="M320 224c32 64 64 128 64 160s-26.862 64-64 64c-27.314 0-56.774-9.771-88-29.313V224h88Z"/>
    <path d="M120 400c20 0 40 32 60 32s40-32 60-32 40 32 60 32 40-32 60-32" fill="none" stroke="#111111" stroke-width="24" stroke-linecap="round"/>
  </g>
</svg>
